<svg width="27" height="27" viewBox="0 0 27 27" fill="none" xmlns="http://www.w3.org/2000/svg">
<path d="M19.6875 13.5C19.2399 13.5 18.8107 13.3222 18.4943 13.0057C18.1778 12.6893 18 12.2601 18 11.8125C18 11.3649 18.1778 10.9357 18.4943 10.6193C18.8107 10.3028 19.2399 10.125 19.6875 10.125C20.1351 10.125 20.5643 10.3028 20.8807 10.6193C21.1972 10.9357 21.375 11.3649 21.375 11.8125C21.375 12.2601 21.1972 12.6893 20.8807 13.0057C20.5643 13.3222 20.1351 13.5 19.6875 13.5ZM16.3125 9C15.8649 9 15.4357 8.82221 15.1193 8.50574C14.8028 8.18928 14.625 7.76005 14.625 7.3125C14.625 6.86495 14.8028 6.43572 15.1193 6.11926C15.4357 5.80279 15.8649 5.625 16.3125 5.625C16.7601 5.625 17.1893 5.80279 17.5057 6.11926C17.8222 6.43572 18 6.86495 18 7.3125C18 7.76005 17.8222 8.18928 17.5057 8.50574C17.1893 8.82221 16.7601 9 16.3125 9ZM10.6875 9C10.2399 9 9.81072 8.82221 9.49426 8.50574C9.17779 8.18928 9 7.76005 9 7.3125C9 6.86495 9.17779 6.43572 9.49426 6.11926C9.81072 5.80279 10.2399 5.625 10.6875 5.625C11.1351 5.625 11.5643 5.80279 11.8807 6.11926C12.1972 6.43572 12.375 6.86495 12.375 7.3125C12.375 7.76005 12.1972 8.18928 11.8807 8.50574C11.5643 8.82221 11.1351 9 10.6875 9ZM7.3125 13.5C6.86495 13.5 6.43572 13.3222 6.11926 13.0057C5.80279 12.6893 5.625 12.2601 5.625 11.8125C5.625 11.3649 5.80279 10.9357 6.11926 10.6193C6.43572 10.3028 6.86495 10.125 7.3125 10.125C7.76005 10.125 8.18928 10.3028 8.50574 10.6193C8.82221 10.9357 9 11.3649 9 11.8125C9 12.2601 8.82221 12.6893 8.50574 13.0057C8.18928 13.3222 7.76005 13.5 7.3125 13.5ZM13.5 3.375C10.8147 3.375 8.23935 4.44174 6.34054 6.34054C4.44174 8.23935 3.375 10.8147 3.375 13.5C3.375 16.1853 4.44174 18.7606 6.34054 20.6595C8.23935 22.5583 10.8147 23.625 13.5 23.625C13.9476 23.625 14.3768 23.4472 14.6932 23.1307C15.0097 22.8143 15.1875 22.3851 15.1875 21.9375C15.1875 21.4988 15.0187 21.105 14.7487 20.8125C14.49 20.5088 14.3212 20.115 14.3212 19.6875C14.3212 19.2399 14.499 18.8107 14.8155 18.4943C15.132 18.1778 15.5612 18 16.0087 18H18C19.4918 18 20.9226 17.4074 21.9775 16.3525C23.0324 15.2976 23.625 13.8668 23.625 12.375C23.625 7.4025 19.0912 3.375 13.5 3.375Z" fill="black"/>
</svg>
