<svg width="25" height="24" viewBox="0 0 25 24" fill="none" xmlns="http://www.w3.org/2000/svg">
<path d="M17.9972 3.59C17.6172 3.21 17.1072 3 16.5772 3H5.40723C4.87679 3 4.36809 3.21071 3.99301 3.58579C3.61794 3.96086 3.40723 4.46957 3.40723 5V19C3.40723 20.1 4.30723 21 5.40723 21H19.4072C20.5072 21 21.4072 20.1 21.4072 19V7.83C21.4072 7.3 21.1972 6.79 20.8172 6.42L17.9972 3.59ZM12.4072 19C10.7472 19 9.40723 17.66 9.40723 16C9.40723 14.34 10.7472 13 12.4072 13C14.0672 13 15.4072 14.34 15.4072 16C15.4072 17.66 14.0672 19 12.4072 19ZM13.4072 9H7.40723C6.30723 9 5.40723 8.1 5.40723 7C5.40723 5.9 6.30723 5 7.40723 5H13.4072C14.5072 5 15.4072 5.9 15.4072 7C15.4072 8.1 14.5072 9 13.4072 9Z" fill="black"/>
</svg>
