<svg width="20" height="20" viewBox="0 0 20 20" fill="none" xmlns="http://www.w3.org/2000/svg">
<g clip-path="url(#clip0_145_1591)">
<path d="M20 1.66667V5C20 5.44203 19.8244 5.86595 19.5118 6.17851C19.1993 6.49107 18.7754 6.66667 18.3333 6.66667C17.8913 6.66667 17.4674 6.49107 17.1548 6.17851C16.8423 5.86595 16.6667 5.44203 16.6667 5V3.33333H11.6667V16.6667H13.3333C13.7754 16.6667 14.1993 16.8423 14.5118 17.1548C14.8244 17.4674 15 17.8913 15 18.3333C15 18.7754 14.8244 19.1993 14.5118 19.5118C14.1993 19.8244 13.7754 20 13.3333 20H6.66667C6.22464 20 5.80072 19.8244 5.48816 19.5118C5.17559 19.1993 5 18.7754 5 18.3333C5 17.8913 5.17559 17.4674 5.48816 17.1548C5.80072 16.8423 6.22464 16.6667 6.66667 16.6667H8.33333V3.33333H3.33333V5C3.33333 5.44203 3.15774 5.86595 2.84518 6.17851C2.53262 6.49107 2.10869 6.66667 1.66667 6.66667C1.22464 6.66667 0.800716 6.49107 0.488155 6.17851C0.175595 5.86595 0 5.44203 0 5V1.66667C0 1.22464 0.175595 0.800716 0.488155 0.488155C0.800716 0.175595 1.22464 0 1.66667 0L18.3333 0C18.7754 0 19.1993 0.175595 19.5118 0.488155C19.8244 0.800716 20 1.22464 20 1.66667Z" fill="black"/>
</g>
<defs>
<clipPath id="clip0_145_1591">
<rect width="20" height="20" fill="white"/>
</clipPath>
</defs>
</svg>
