<svg width="27" height="27" viewBox="0 0 27 27" fill="none" xmlns="http://www.w3.org/2000/svg">
<path d="M14.3438 22.7812V17.7188H17.7188L13.5 12.6562L9.28125 17.7188H12.6562V22.7812H8.4375V22.7391C8.29575 22.7475 8.16075 22.7812 8.01562 22.7812C6.3373 22.7812 4.72772 22.1145 3.54096 20.9278C2.35421 19.741 1.6875 18.1314 1.6875 16.4531C1.6875 13.2064 4.14281 10.5604 7.29338 10.1976C7.5696 8.75356 8.34037 7.45094 9.47313 6.51375C10.6059 5.57656 12.0298 5.06339 13.5 5.0625C14.9704 5.06332 16.3946 5.57643 17.5276 6.5136C18.6606 7.45076 19.4317 8.75342 19.7083 10.1976C22.8589 10.5604 25.3108 13.2064 25.3108 16.4531C25.3108 18.1314 24.6441 19.741 23.4573 20.9278C22.2706 22.1145 20.661 22.7812 18.9827 22.7812C18.8409 22.7812 18.7042 22.7475 18.5608 22.7391V22.7812H14.3438Z" fill="black"/>
</svg>
