<svg width="30" height="29" viewBox="0 0 30 29" fill="none" xmlns="http://www.w3.org/2000/svg">
<path d="M19.6786 13.3544C19.9924 13.3544 20.2934 13.479 20.5153 13.7009C20.7372 13.9228 20.8618 14.2238 20.8618 14.5376C20.8618 14.8514 20.7372 15.1523 20.5153 15.3742C20.2934 15.5961 19.9924 15.7207 19.6786 15.7207H10.2132C9.89937 15.7207 9.59842 15.5961 9.37653 15.3742C9.15464 15.1523 9.02998 14.8514 9.02998 14.5376C9.02998 14.2238 9.15464 13.9228 9.37653 13.7009C9.59842 13.479 9.89937 13.3544 10.2132 13.3544H19.6786Z" fill="black"/>
<path fill-rule="evenodd" clip-rule="evenodd" d="M1.93091 14.5376C1.93091 21.7254 7.75809 27.5526 14.9459 27.5526C22.1338 27.5526 27.9609 21.7254 27.9609 14.5376C27.9609 7.34976 22.1338 1.52258 14.9459 1.52258C7.75809 1.52258 1.93091 7.34976 1.93091 14.5376ZM4.29727 14.5376C4.29727 15.936 4.57271 17.3207 5.10785 18.6127C5.643 19.9046 6.42737 21.0785 7.41619 22.0673C8.40501 23.0561 9.57891 23.8405 10.8709 24.3757C12.1628 24.9108 13.5475 25.1862 14.9459 25.1862C16.3443 25.1862 17.729 24.9108 19.021 24.3757C20.3129 23.8405 21.4868 23.0561 22.4757 22.0673C23.4645 21.0785 24.2488 19.9046 24.784 18.6127C25.3191 17.3207 25.5946 15.936 25.5946 14.5376C25.5946 11.7134 24.4727 9.00488 22.4757 7.00787C20.4786 5.01086 17.7701 3.88895 14.9459 3.88895C12.1217 3.88895 9.4132 5.01086 7.41619 7.00787C5.41918 9.00488 4.29727 11.7134 4.29727 14.5376Z" fill="black"/>
</svg>
