<svg width="29" height="29" viewBox="0 0 29 29" fill="none" xmlns="http://www.w3.org/2000/svg">
<path d="M10.1062 17.0961H11.0409L11.3722 16.7766C10.1726 15.3852 9.51331 13.6089 9.51461 11.7717C9.51461 10.2507 9.96566 8.76376 10.8107 7.49903C11.6558 6.2343 12.8569 5.24857 14.2622 4.66648C15.6675 4.08439 17.2138 3.93209 18.7057 4.22883C20.1975 4.52558 21.5679 5.25805 22.6434 6.33361C23.719 7.40917 24.4515 8.77952 24.7482 10.2714C25.045 11.7632 24.8927 13.3096 24.3106 14.7148C23.7285 16.1201 22.7427 17.3213 21.478 18.1663C20.2133 19.0114 18.7264 19.4624 17.2053 19.4624C15.3004 19.4624 13.5493 18.7644 12.2004 17.6048L11.881 17.9361V18.8708L5.96506 24.7749L4.20212 23.012L10.1062 17.0961ZM17.2053 17.0961C20.1514 17.0961 22.5296 14.7179 22.5296 11.7717C22.5296 8.82562 20.1514 6.44742 17.2053 6.44742C14.2592 6.44742 11.881 8.82562 11.881 11.7717C11.881 14.7179 14.2592 17.0961 17.2053 17.0961ZM16.6137 8.81379H17.7969V11.1802H20.1633V12.3633H17.7969V14.7297H16.6137V12.3633H14.2473V11.1802H16.6137V8.81379Z" fill="black"/>
</svg>
